<?xml version="1.0" encoding="utf-8"?>
<!-- Generator: Adobe Illustrator 17.1.0, SVG Export Plug-In . SVG Version: 6.00 Build 0)  -->
<!DOCTYPE svg PUBLIC "-//W3C//DTD SVG 1.1//EN" "http://www.w3.org/Graphics/SVG/1.1/DTD/svg11.dtd">
<svg version="1.1" id="Layer_1" xmlns="http://www.w3.org/2000/svg" xmlns:xlink="http://www.w3.org/1999/xlink" x="0px" y="0px"
	 viewBox="14.2 137.5 566.9 566.9" enable-background="new 14.2 137.5 566.9 566.9" xml:space="preserve">
<g>
	<path d="M117.4,462.2v-1.1l11.4-72.1c0-0.6,0-1.1,0-1.7c0,0,66.9,8.6,170.5,8.6c104.1,0,170.5-8.6,170.5-8.6
		c-1.1-93.2-76.7-168.8-170.5-168.8c-84.7,0-155,61.8-168.2,143c0,0,0,0-0.6,0c-4,0-7.4,0.6-10.9,1.7l11.4-192.8l62.9-1.1
		c7.4,0,10.9-5.7,6.9-12.6l-4-6.9c-4-6.9-13.2-12-21.2-12l-33.8,0.6c-7.4,0-16.6,5.7-20.6,12.6l-4,7.4c-2.3,4.6-1.7,8.6,1.1,10.3
		l-10.9,200.8c-9.2,6.9-14.9,17.7-14.9,30.3v17.7c0,8.6,2.9,16.6,7.4,22.9l-12.6,82.4c-1.7,11.4,5.7,21.7,16.6,24l-11.4,71.5
		l152.7,85.8h0.6v-56.1C246.1,551.5,189.5,471.4,117.4,462.2z"/>
	<path d="M495,544.6c8-4,12.6-12.6,10.9-21.7l-18.3-117.3c-1.7-9.2-8.6-16-17.2-17.7c0,0.6,0,1.1,0,1.1l11.4,72.1v1.1
		c-72.1,9.2-128.7,89.2-128.7,185.9v56.1h0.6l152.7-85.8L495,544.6z"/>
	<path d="M458.4,408.4c0,0-69.8,12.6-160.2,12.6c-91,0-160.2-12.6-160.2-12.6l4,23.5c0,0,47.5,25.2,119.6,32v240.8h38.9h35.5V463.4
		c72.1-6.9,119.6-32,119.6-32L458.4,408.4z"/>
</g>
</svg>
