<?xml version="1.0" encoding="utf-8"?>
<!-- Generator: Adobe Illustrator 17.1.0, SVG Export Plug-In . SVG Version: 6.00 Build 0)  -->
<!DOCTYPE svg PUBLIC "-//W3C//DTD SVG 1.1//EN" "http://www.w3.org/Graphics/SVG/1.1/DTD/svg11.dtd">
<svg version="1.1" id="Layer_1" xmlns="http://www.w3.org/2000/svg" xmlns:xlink="http://www.w3.org/1999/xlink" x="0px" y="0px"
	 viewBox="14.2 137.5 566.9 566.9" enable-background="new 14.2 137.5 566.9 566.9" xml:space="preserve">
<path d="M297.6,137.5c-156.4,0-283.5,127.1-283.5,283.5s127.1,283.5,283.5,283.5s283.5-127.1,283.5-283.5S454,137.5,297.6,137.5z
	 M311.7,166.9c83.7,4.9,156.4,49.5,199.2,115.5l-12.2,7.3c-9.1-14.1-19-26.3-30.6-37.9l-20.2,20.1c-26.3-26.3-59.2-45.8-96.6-55.6
	l7.3-27.5c-15.3-4.3-31.2-6.7-47-7.3L311.7,166.9L311.7,166.9z M283.5,166.9V181c-16.5,1.2-31.8,3.7-47,7.3l7.3,27.5
	c-37.3,9.7-70.3,29.4-96.6,55.6l-20-20.2c-11,11.6-21.3,23.8-30.6,37.9l-12.2-7.3C127.3,216.3,200,171.8,283.5,166.9z M71.1,536.3
	c-17.8-34.8-27.5-73.9-27.5-115.5c0-40.9,9.7-80.1,26.9-114.2l12.2,7.3c-7.3,14.1-12.8,29.4-17.1,44l27.5,7.3
	c-4.9,17.8-7.3,36.6-7.3,55.6c0,19.5,2.5,37.9,7.3,55.6l-27.5,7.3c4.3,15.3,9.7,30.6,17.8,45.3L71.1,536.3z M283.5,675.1
	c-83.1-4.3-155.8-48.9-198.6-114.2l12.2-7.3c8.5,13.4,19,25.7,30,36.6l20.1-20.1c26.3,26.3,59.2,45.8,96.6,55.6l-7.3,27.5
	c15.3,4.3,31.2,6.7,47,7.3L283.5,675.1L283.5,675.1z M297.6,590.1c-11,0-21.3-1.2-31.2-3.1l15.9-83.1c-19.5-3.7-36-13.4-48.2-28.1
	l-64.1,55c-6.7-7.9-12.8-16.5-18.4-25.7s-9.7-19-13.4-28.7l80.1-28.1c-3.1-8.5-4.9-18.4-4.9-28.1c0-9.7,1.8-19,4.9-28.1l-80.1-28.1
	c3.7-9.7,7.9-19.5,13.4-28.7c5.5-9.1,11.6-17.8,18.4-25.7l64.1,55c12.2-14.1,29.4-24.4,48.2-28.1l-15.9-83.1
	c10.4-1.8,20.7-3.1,31.2-3.1s21.3,1.2,31.2,3.1l-15.9,83c19.5,3.7,36,13.4,48.2,28.1l64.1-55c6.7,7.9,12.8,16.5,18.4,25.7
	c5.5,9.1,9.7,19,13.4,28.7L376.9,392c3.1,8.5,4.9,18.4,4.9,28.1s-1.8,19-4.9,28.1l80.1,28.1c-3.7,9.7-7.9,19.5-13.4,28.7
	c-5.5,9.1-11.6,17.8-18.4,25.7l-64.1-55c-12.2,14.1-29.4,24.4-48.2,28.1l15.9,83.1C319,588.9,308.7,590.1,297.6,590.1z M311.7,675.1
	V661c16.5-1.2,31.8-3.7,47-7.3l-7.3-27.5c37.3-9.7,70.3-29.4,96.6-55.6l20.1,20.1c11-11,20.7-23.2,30-36.6l12.2,7.3
	C466.8,626.1,394.8,670.2,311.7,675.1z M512.1,529.1c7.3-14.7,13.4-30,17.8-45.3l-27.5-7.3c4.9-17.8,7.3-36.6,7.3-55.6
	c0-19.5-2.5-37.9-7.3-55.6l27.5-7.3c-4.3-14.7-9.7-30-17.1-44l12.1-7.3c17.1,34.2,26.9,73.3,26.9,114.2c0,41.6-9.7,80.7-27.5,115.5
	L512.1,529.1z"/>
</svg>
