<?xml version="1.0" encoding="utf-8"?>
<!-- Generator: Adobe Illustrator 17.1.0, SVG Export Plug-In . SVG Version: 6.00 Build 0)  -->
<!DOCTYPE svg PUBLIC "-//W3C//DTD SVG 1.1//EN" "http://www.w3.org/Graphics/SVG/1.1/DTD/svg11.dtd">
<svg version="1.1" id="Layer_1" xmlns="http://www.w3.org/2000/svg" xmlns:xlink="http://www.w3.org/1999/xlink" x="0px" y="0px"
	 viewBox="14.2 137.5 566.9 566.9" enable-background="new 14.2 137.5 566.9 566.9" xml:space="preserve">
<g>
	<path d="M259.5,335.3c0-5.1-1.7-10.6-4.5-14.4c-2.8-3.8-6.8-6.7-11.5-8.1c-2.1-0.7-4.4-1-6.8-1c-4.5,0-7.7,0.7-11.3,3
		c-3.5,2.3-7,5.2-8.8,9c-1.4,3-2.7,7.3-2.7,10.8c0,3.5,0.8,6.9,2.2,9.9c1.9,3.9,3.8,6.4,7.4,8.7c3.5,2.2,8.7,3.3,13.2,3.3
		c4.6,0,8.9-0.5,12.5-2.8c3.1-2,5.4-4.2,7.2-7.5C258.1,342.9,259.5,339.3,259.5,335.3z"/>
	<path d="M290.3,394.5c-7.4-0.2-22.7-0.3-30.6-1.3c-7.1-0.9-5.4,5-5.4,5s7.8,8.7,26.1,8.4c27.3-0.4,41.9-7.6,40.4-13.6
		C320.3,390.5,308.5,394.1,290.3,394.5z"/>
	<path d="M258.9,377c0.4,2.3,1.4,3.7,5,4.4c1.2,0.3,3.8,0,5.3-1.2c2.9-2.5,5-7.1,8.1-7c3.3,0.2,5.2,3.3,6.6,8
		c0.6,2,10.4,2.6,11.4,0.3c4.5-8.4,7.2-8.5,13.5-1.7c0.7,0.8,5.8,0.8,6.6,0.4c2.9-1.2,4-4.7,3.9-6.9c-0.3-5.6-2.5-12.7-7.3-16.5
		c-5.5-4.4-12.9-6.7-23.6-6.6c-6.7,0.1-16.7,2.4-22.8,8.3C258,368,258.9,377,258.9,377z"/>
	<path d="M351.4,314.1c-3-1.4-7.3-2.7-10.8-2.7c-3.5,0-6.9,0.8-9.9,2.2c-3.9,1.9-6.4,3.8-8.7,7.4c-2.2,3.5-3.3,8.7-3.3,13.2
		c0,4.6,0.5,8.9,2.8,12.5c2,3.1,4.2,5.4,7.5,7.2s6.8,3.2,10.8,3.2c5.1,0,10.6-1.7,14.4-4.5s6.7-6.8,8.1-11.5c0.7-2.1,1-4.4,1-6.8
		c0-4.5-0.7-7.7-3-11.3C358.2,319.3,355.2,315.9,351.4,314.1z"/>
	<path d="M489.7,416.8c-1.1-0.7-2.2-1.3-3.3-1.7c7.1-79,13.6-150.8,16.2-176.3c0.3-5.3,2-12.3,2.2-14.1c0.6-8.1,8.6-10.2,8.8-16.7
		c0.4-18.7-11.3-69-18.8-70.5c-8.1,2.1-31.7,47.6-32.1,66.8c-0.3,12.7,6.7,6.6,6,18.8c-4.7,24.7-8.9,97.5-11,129.5
		c-1.1,16.2-2.2,33.6-3.4,51.7c-22.7-23.4-20-81.2-14.1-96.9c9-23.7,10.3-41-3.7-62.2c-17-25.7-39.9-28.1-76.1-13.1
		c-40.3-8.5-94.2-6.8-148.1,2.4c-20.1-6-39.4-15.3-58.2-0.7c-26.1,20.2-30.9,36.2-23.9,53.4c2.8,6.8,6.6,15.4,8.1,25.3
		c1.6,31.1,0.4,61.5-3,72.9c-4.9,12.9-9.7,32.2-15.1,40.5c-38.4,58-54.1,155.5-18.1,180.3c5.3,3.6,17.8,4.3,21.8,2.6
		c7.3-3.2,9.7-18.9,16.3-21.7c1.8-0.8,4.9-0.5,4.4,7.9c-2.2,27.4-8.7,73,6.1,94.9c3.1,8.6,114.2,11.7,117-0.9
		c1.1-8.7,0.8-13.4,7.6-20.6c10.9-2.6,26.7-3.7,34.4-0.9c11.3,7.2,2.2,11.5,10.2,21.5c5.6,5.4,89.9,10,94.3-1.6
		c9.6-33,12.2-67.3,10.8-79c-4-32.5-2.6-58.8,5.7-65.6c3.6-2.9,8.8-0.7,14.9,2.2c-5,78.6-8.9,142.8-8.8,145.4
		c0.3,8.5,5.2,13.2,6.2,13.5c1,0.3,8,0.3,10.7-0.2c2.7-0.4,7.1-7.6,7.9-13.7c0.6-2.1,6.2-63.1,13.2-140.2
		C507.3,535.8,521.9,438.2,489.7,416.8z M419.6,356.4c1.3,35.7,8.5,50.2,4.5,71.5c-2.3,12.5-29.1,35.6-55,46.1
		c-23,9.3-37.7,26.6-56.1,34.2c-18.4,7.5-46.4,8.1-74.7,25c-32,19.1-64.1,33-81.5-6.2c-6.1-13.7-8.8-32.7-9.1-46.3
		c-0.4-16.1-1.7-35.6,1.6-53.5c1.3-7.1,5.4-24.1,6.7-37.7c0,0,2.2-68.3,1.9-77.1s-3.4-11.5-3.4-21.8c0-10.4,15.3-19.5,30.1-31.2
		c11-8.7,21.8-4.2,33-8.6c9.4-5.4,46.6-8.1,68.8-8.4c33.6-0.5,65.7,3.3,82.8,4.4c22.7,1.4,50.4,9.6,55.9,30.4
		c1.5,5.8-1.9,18.3-2.7,34.2C421.6,326.6,419.1,343.7,419.6,356.4z M480.3,212.8c5.6,0.1,9.3,0.6,14.8,1.4c0.1,2.8-0.8,6.1-1,9.6
		c-5.7-1.4-8.6-1.5-15-1.2C479,222.7,478.9,216.3,480.3,212.8z M481.3,359c-4.1,42.1-23.7,236.1-28.9,321.3
		c-0.8,13-5.6,12.5-5.7,3.3c0-3.8,20.3-297.2,20.7-304.2c4.9-82.3,9-142.2,10.9-149.5c5.5-0.6,9.1-0.7,14.2,1.1
		C492.6,230.9,485.1,298,481.3,359z"/>
	<path d="M380.2,288.9c-17.4-9.7-54-10.5-89-11.4c-23.1-0.6-91-3.3-106.6,26.6c-27.6,42.3-12.2,84.8-12.2,84.8
		c8.1,28.1,23.1,36.7,50,42.9c9.8,2.3,34.8,13.1,71.6,11.3c31.3-1.6,41.7-1.6,73.8-16.4c29.5-13.5,39.7-31.9,39.8-68
		C407.7,332.4,397.7,298.5,380.2,288.9z M362.3,406.7c-28.1,14.8-49.8,16.6-73.3,16c-37.1-0.9-57.7-4-76.2-13.3
		c-15.8-11.7-23.7-22.7-26.4-42.1c0,0-7.5-29.9,6.3-52.4c19.1-24.2,50.6-20.8,80.8-21.6c33.5-0.9,77.8,0.6,93.7,8.7
		s25.2,23.1,24,46.5C389.6,380.2,385.4,394.5,362.3,406.7z"/>
	<path d="M296.2,265.4c17.1,0.1,58.5,5,71.9,6.5c3.2,0.2,6.2,3.9,7.6,2.7c2.5-2.1,1.9-7.8,1.5-10.6c-0.1-0.4-5.3-0.4-8.6,0.5
		c-8.3,2.1-34.5-7.1-71.8-6.6c-63.3,1-84.3,6.1-81.1,12.2C217.1,272.5,254,266.2,296.2,265.4z"/>
</g>
</svg>
