<?xml version="1.0" encoding="utf-8"?>
<!-- Generator: Adobe Illustrator 17.1.0, SVG Export Plug-In . SVG Version: 6.00 Build 0)  -->
<!DOCTYPE svg PUBLIC "-//W3C//DTD SVG 1.1//EN" "http://www.w3.org/Graphics/SVG/1.1/DTD/svg11.dtd">
<svg version="1.1" id="Layer_1" xmlns="http://www.w3.org/2000/svg" xmlns:xlink="http://www.w3.org/1999/xlink" x="0px" y="0px"
	 viewBox="14.2 137.5 566.9 566.9" enable-background="new 14.2 137.5 566.9 566.9" xml:space="preserve">
<g>
	<path d="M409.5,366.5c-16.8,1.6-29.3,7.2-37.2,16.9c-9.8,12-10,27.2-9.6,33.5h47.3c-5-4.1-8.4-13.7-8.4-25.4
		C401.5,380.1,404.7,370.8,409.5,366.5z"/>
	<path d="M421.5,366.3c4.9,4.2,8.2,13.6,8.2,25.2c0,11.7-3.4,21.3-8.4,25.4h46.8C465.7,404.7,455.8,368.8,421.5,366.3z"/>
	<path d="M310.2,234.2c-76.2,0-156.8,36-215.6,96.3c-53.7,55.2-82.5,122.6-81.1,190c6.4,8.7,68,85.7,233.1,85.7c2.1,0,4.2,0,6.4,0
		c276.1-3.2,322.9-76.3,327.4-85C542.1,338.8,443.6,234.2,310.2,234.2z M349.6,461.8c2.3,0,5.8,1.1,11.6,2.9
		c19.8,6.2,61,19.2,97.6-2.4c1.7-1,3.8-0.4,4.8,1.2c1,1.7,0.4,3.8-1.2,4.8c-16.5,9.8-33.8,13.1-49.7,13.1c-22,0-41.5-6.2-53.5-10
		c-4.1-1.3-8.2-2.6-9.5-2.6c-2.6,0-5.6-1.3-9.8-3.1c-14-6.1-39.9-17.3-85.7,2.8c-60.6,26.7-125.1,1.1-127.8,0
		c-1.8-0.7-2.7-2.8-1.9-4.6c0.7-1.8,2.8-2.7,4.6-1.9c0.6,0.3,64.5,25.5,122.3,0c48.6-21.4,77.4-8.9,91.3-2.8
		C345.5,460.5,348.5,461.8,349.6,461.8z M337.5,555.1c22.8,1.4,57.5,0.9,63.4-4.8l4.9,5.1c-6.4,6.2-27.7,7.5-45.2,7.5
		c-10.6,0-19.9-0.5-23.5-0.7L337.5,555.1z M296.8,522.1l-0.4,0.3c-8.1,8.5-17.6,12.7-28,12.7h0c-22.2,0-40.9-19.5-41.7-20.3l5.1-4.8
		c0.2,0.2,17.4,18.1,36.6,18.1h0c8.6,0,16.4-3.7,23.2-10.9l0.8-0.6l5-3l1.9,1.6c1.4,1.2,33.8,27.7,65.4-5.3l5.1,4.9
		C338.3,547.7,305.2,528.1,296.8,522.1z M167.4,543.5v7c-8.2,0-60.5-21-70.9-25.2l2.6-6.5C128.7,530.7,162.7,543.5,167.4,543.5z
		 M298.1,407.3c1.9-2.2,5.2-2.5,7.4-0.6c10.3,8.7,24.2,18.1,28.3,18.1c2.9,0,5.3,2.4,5.3,5.3s-2.4,5.3-5.3,5.3
		c-10,0-29.4-15.8-35.1-20.6C296.5,412.8,296.2,409.5,298.1,407.3z M245.2,424.8c13.6-1.5,28.2-17.5,28.4-17.7
		c1.9-2.2,5.3-2.3,7.5-0.4c2.2,2,2.3,5.3,0.4,7.5c-0.7,0.8-17.4,19.1-35,21.1c-0.2,0-0.4,0-0.6,0c-2.7,0-4.9-2-5.2-4.7
		C240.2,427.7,242.3,425.1,245.2,424.8z M170.5,359l2,0c22.2,0.7,38.7,7.4,48.9,20c14.7,17.9,11,41,10.8,42
		c-0.3,1.7-1.8,2.9-3.5,2.9H116c-1,0-2-0.4-2.6-1.2c-0.7-0.7-1-1.8-0.9-2.8C112.6,419.4,120.3,359,170.5,359z M96.5,448.9
		c7.4-11.1,29.7-5.5,32.2-4.8l-1.8,6.8c-5.1-1.4-20.7-4-24.5,1.9c-1.7,2.5-3.4,11.2,16.5,36.6l-5.5,4.3
		C96.3,472.1,90.8,457.4,96.5,448.9z M212.4,576.6c-45.3,0-154-39.8-158.9-41.6l2.4-6.6c1.3,0.5,127.1,46.6,163.7,40.7l1.1,6.9
		C218.3,576.4,215.5,576.6,212.4,576.6z M196.7,550.4l1.3-6.9c0.7,0.1,72.1,13.1,92.4,11.4l0.6,7c-1.4,0.1-3,0.2-4.8,0.2
		C260.8,562.1,199.5,551,196.7,550.4z M521.7,549.8c-27,20.7-238.6,33.6-247.6,34.2l-0.4-7c60.7-3.7,222.8-16.7,243.7-32.7
		L521.7,549.8z M503.7,534.7c-16.3,9.6-65.3,15.6-67.4,15.8l-0.8-7c0.5-0.1,49.6-6.1,64.7-14.9L503.7,534.7z M488.5,456.8
		c4.2,9.4-0.1,21.8-12.9,37l-5.4-4.5c10.7-12.8,14.9-23,11.9-29.5c-3.8-8.4-18.8-10.5-24.2-10.6l0.1-7
		C459,442.1,482.1,442.7,488.5,456.8z M475.9,420.4c0,1.9-1.6,3.5-3.5,3.5c0,0-0.1,0-0.1,0H359.5c-1.7,0-3.2-1.2-3.5-2.9
		c-0.2-1-3.9-24,10.8-42c10.2-12.5,26.7-19.2,48.9-20l2,0c46.5,0,56.5,51.8,57.8,59.9C475.7,419.4,475.9,419.9,475.9,420.4z"/>
	<path d="M178.3,416.9h47.3c0.4-6.3,0.2-21.5-9.6-33.5c-7.9-9.6-20.4-15.3-37.2-16.9c4.8,4.3,8,13.6,8,24.9
		C186.7,403.2,183.3,412.7,178.3,416.9z"/>
	<path d="M158.5,391.5c0-11.5,3.3-20.9,8.2-25.2c-34.3,2.5-44.2,38.4-46.5,50.6h46.8C161.9,412.7,158.5,403.2,158.5,391.5z"/>
</g>
</svg>
