<?xml version="1.0" encoding="utf-8"?>
<!-- Generator: Adobe Illustrator 17.1.0, SVG Export Plug-In . SVG Version: 6.00 Build 0)  -->
<!DOCTYPE svg PUBLIC "-//W3C//DTD SVG 1.1//EN" "http://www.w3.org/Graphics/SVG/1.1/DTD/svg11.dtd">
<svg version="1.1" id="Layer_1" xmlns="http://www.w3.org/2000/svg" xmlns:xlink="http://www.w3.org/1999/xlink" x="0px" y="0px"
	 viewBox="14.2 137.5 566.9 566.9" enable-background="new 14.2 137.5 566.9 566.9" xml:space="preserve">
<path d="M445.8,187.3c-1.9-1.2-3.1,1.2-1.9,2.5c30.2,33.2,59.7,104.2,59.7,149.2c0,43.2-36.3,134.4-104.8,134.4
	c-52.4,0-64.7-60.4-64.7-90.6c0-47.4,21.5-103.5,72.7-123.3l-33.2-36.3c-29.6,12.9-49.9,44.4-49.9,44.4c0-38.2,25.9-70.3,25.9-70.3
	l-46.2-52.4l-6.2-7.4l-6.2,6.7L245.4,196c0,0,25.9,32.1,25.9,70.3c0,0-20.3-31.5-49.9-44.4l-33.2,36.3
	c50.5,19.7,72.7,75.8,72.7,123.3c0,30.2-12.9,90.6-64.7,90.6c-68.4,0-104.8-91.2-104.8-134.4c0-44.4,29-115.8,59.7-149.2
	c1.2-1.2-0.6-3.1-1.9-2.5C69.3,236.6,16.9,326,18.1,427.7C20,581.7,145,704.4,298,704.4c154.7,0,279.2-125.7,279.2-279.8
	C577.1,324.8,524.7,236.6,445.8,187.3z"/>
</svg>
