<?xml version="1.0" encoding="utf-8"?>
<!-- Generator: Adobe Illustrator 17.1.0, SVG Export Plug-In . SVG Version: 6.00 Build 0)  -->
<!DOCTYPE svg PUBLIC "-//W3C//DTD SVG 1.1//EN" "http://www.w3.org/Graphics/SVG/1.1/DTD/svg11.dtd">
<svg version="1.1" id="Layer_1" xmlns="http://www.w3.org/2000/svg" xmlns:xlink="http://www.w3.org/1999/xlink" x="0px" y="0px"
	 viewBox="14.2 137.5 566.9 566.9" enable-background="new 14.2 137.5 566.9 566.9" xml:space="preserve">
<g>
	<g>
		<path d="M507.6,251.2c3.8-4.7,3.4-11.5-0.9-15.7l-23.6-23.6c-4.3-4.3-11-4.6-15.7-0.9L318.2,330.4l70,70L507.6,251.2z
			 M152.4,306.3l-9.4-9.4L245,195c1.7,0.9,3.5,1.5,5.4,1.5c3,0,6-1.2,8.4-3.4c3.8-3.8,4.3-9.3,2-13.8l21.7-21.7
			c4.6-4.6,4.6-12.1,0-16.7s-12.1-4.6-16.7,0L244,162.6c-4.5-2.3-10-1.8-13.8,2c-3.8,3.8-4.3,9.3-2,13.8L126.4,280.2l-9.4-9.4
			c-4.6-4.6-12.1-4.6-16.7,0l-82.7,82.7c-4.6,4.6-4.6,12.1,0,16.7l9.4,9.4l-9.4,9.4c-4.6,4.6-4.6,12.1,0,16.7
			c2.3,2.3,5.3,3.4,8.4,3.4s6-1.2,8.4-3.4l9.4-9.4l9.4,9.4c2.3,2.3,5.3,3.4,8.4,3.4c3,0,6-1.2,8.4-3.4l82.7-82.7
			C157,318.4,157,310.9,152.4,306.3z M577.6,436.2c-4.6-4.6-12.1-4.6-16.7,0l-21.7,21.7c-4.5-2.3-10-1.8-13.8,2
			c-3.8,3.8-4.3,9.3-2,13.8L421.6,575.5l-9.4-9.4c-4.6-4.6-12.1-4.6-16.7,0l-82.7,82.7c-4.6,4.6-4.6,12.1,0,16.7l9.4,9.4l-9.4,9.4
			c-4.6,4.6-4.6,12.1,0,16.7c2.3,2.3,5.3,3.4,8.4,3.4c3,0,6-1.2,8.4-3.4l9.4-9.4l9.4,9.4c2.3,2.3,5.3,3.4,8.4,3.4c3,0,6-1.2,8.4-3.4
			l82.7-82.7c4.6-4.6,4.6-12.1,0-16.7l-9.4-9.4l101.9-101.9c1.7,0.9,3.5,1.5,5.4,1.5c3,0,6-1.2,8.4-3.4c3.8-3.8,4.3-9.3,2-13.8
			l21.7-21.7C582.3,448.3,582.3,440.8,577.6,436.2z M358.5,565.5c0.2-0.2,0.4-0.2,0.6-0.4l104.3-104.3c1.7,0.9,3.5,1.5,5.4,1.5
			c3,0,6-1.2,8.4-3.4c3.8-3.8,4.3-9.3,2-13.8l9.9-9.9c4.6-4.6,4.6-12.1,0-16.7c-4.6-4.6-12.1-4.6-16.7,0l-9.9,9.9
			c-4.5-2.3-10-1.8-13.8,2c-3.8,3.8-4.3,9.3-2,13.8L344.9,546l-18.7-18.7l15.3-15.3c4.6-4.6,4.6-12.1,0-16.7l-16.1-16.1l48.1-60.2
			l-73.7-73.7l-60.2,48.2l-16.3-16.3c-4.6-4.6-12.1-4.6-16.7,0l-15.3,15.3l-18.7-18.7l101.9-101.9c1.7,0.9,3.5,1.5,5.4,1.5
			c3,0,6-1.2,8.4-3.4c3.8-3.8,4.3-9.3,2-13.8l9.9-9.9c4.6-4.6,4.6-12.1,0-16.7c-4.6-4.6-12.1-4.6-16.7,0l-9.9,9.9
			c-4.5-2.3-10-1.8-13.8,2c-3.8,3.8-4.3,9.3-2,13.8L153.5,359.5c-0.2,0.2-0.2,0.4-0.4,0.5c-2.8,0.2-5.5,1.2-7.6,3.3l-58.4,58.4
			c-3.6,3.6-4.5,9.1-2.2,13.6l33,66l-29.4,29.4c-4.6,4.6-4.6,12.1,0,16.7c2.3,2.3,5.3,3.4,8.4,3.4s6-1.2,8.4-3.4l23.8-23.8l3.2,6.5
			v20.8c0,3.1,1.3,6.1,3.4,8.4l23.6,23.6c2.2,2.2,5.2,3.4,8.3,3.4h20.8l6.5,3.2l-23.8,23.8c-4.6,4.6-4.6,12.1,0,16.7
			c2.3,2.3,5.3,3.4,8.4,3.4s6-1.2,8.4-3.4l29.4-29.4l66,33c4.6,2.3,10,1.4,13.6-2.2l58.4-58.4C357.3,570.9,358.3,568.2,358.5,565.5z
			 M183.6,479.2l-1.9-1.9l-1.3-1.3l-19.7-19.7l54.2-54.2l22.8,22.8L183.6,479.2z M262.2,557.8l-1.4-1.4l-18.5-18.5l-2.9-2.9
			l54.2-54.2l22.8,22.8L262.2,557.8z"/>
	</g>
</g>
</svg>
